<?xml version="1.0" encoding="UTF-8"?>
<svg width="119px" height="25px" viewBox="0 0 119 25" version="1.1" xmlns="http://www.w3.org/2000/svg" xmlns:xlink="http://www.w3.org/1999/xlink">
    <title>logo</title>
    <g id="logo" stroke="none" stroke-width="1" fill="none" fill-rule="evenodd">
        <g id="编组-12" fill="#FFFFFF">
            <path d="M13.827875,3.20564583 C14.5612083,2.4723125 14.5612083,1.28335417 13.827875,0.550020833 C13.0945417,-0.1833125 11.9055833,-0.1833125 11.17225,0.550020833 L0.550166667,11.1723125 C-0.183166667,11.9056458 -0.183166667,13.0946042 0.550166667,13.8277292 L5.86120833,19.1387708 L5.86120833,19.1389792 C6.59454167,19.8723125 7.78329167,19.8723125 8.516625,19.1389792 L17.8112083,9.84439583 L20.4668333,12.5000208 L11.17225,21.7946042 C10.4389167,22.5277292 10.4389167,23.7166875 11.17225,24.4502292 C11.9055833,25.1833542 13.0945417,25.1833542 13.827875,24.4502292 L24.4499583,13.8277292 C25.1832917,13.0946042 25.1832917,11.9056458 24.4499583,11.1723125 L19.1389167,5.8610625 C18.4055833,5.1279375 17.2168333,5.1279375 16.4835,5.8610625 L7.18891667,15.1556458 L4.53329167,12.5000208 L13.827875,3.20564583 Z" id="Fill-1" opacity="0.200000003"></path>
            <path d="M3.205625,11.172375 C3.93895833,11.9057083 3.93895833,13.0946667 3.205625,13.8277917 C2.47229167,14.5613333 1.28333333,14.5613333 0.55,13.8277917 C-0.183333333,13.0946667 -0.183333333,11.9057083 0.55,11.172375 C1.28333333,10.4388333 2.47229167,10.4388333 3.205625,11.172375" id="Fill-3"></path>
            <path d="M8.51670833,5.86108333 C9.25004167,6.594625 9.25004167,7.78358333 8.51670833,8.51670833 C7.783375,9.25004167 6.59441667,9.25004167 5.86108333,8.51670833 C5.12775,7.78358333 5.12775,6.594625 5.86108333,5.86129167 C6.59441667,5.12775 7.783375,5.12775 8.51670833,5.86108333" id="Fill-5"></path>
            <path d="M13.827875,0.55 C14.5612083,1.28354167 14.5612083,2.4725 13.827875,3.205625 C13.0945417,3.93895833 11.9055833,3.93895833 11.17225,3.205625 C10.4389167,2.4725 10.4389167,1.28354167 11.17225,0.55 C11.9055833,-0.183333333 13.0945417,-0.183333333 13.827875,0.55" id="Fill-7"></path>
            <path d="M8.51670833,16.4834375 C9.25004167,17.2167708 9.25004167,18.4057292 8.51670833,19.1390625 C7.783375,19.8723958 6.59441667,19.8723958 5.86108333,19.1390625 C5.12775,18.4057292 5.12775,17.2167708 5.86108333,16.4834375 C6.59441667,15.7501042 7.783375,15.7501042 8.51670833,16.4834375" id="Fill-9"></path>
            <path d="M13.827875,11.172375 C14.5612083,11.9057083 14.5612083,13.0946667 13.827875,13.8277917 C13.0945417,14.5613333 11.9055833,14.5613333 11.17225,13.8277917 C10.4389167,13.0946667 10.4389167,11.9057083 11.17225,11.172375 C11.9055833,10.4388333 13.0945417,10.4388333 13.827875,11.172375" id="Fill-11"></path>
            <path d="M19.1389583,5.86108333 C19.8722917,6.594625 19.8722917,7.78358333 19.1389583,8.51670833 C18.405625,9.25004167 17.2166667,9.25004167 16.4833333,8.51670833 C15.75,7.78358333 15.75,6.594625 16.4833333,5.86129167 C17.2166667,5.12775 18.405625,5.12775 19.1389583,5.86108333" id="Fill-13"></path>
            <path d="M13.827875,21.7945208 C14.5612083,22.5278542 14.5612083,23.7168125 13.827875,24.4501458 C13.0945417,25.1834792 11.9055833,25.1834792 11.17225,24.4501458 C10.4389167,23.7168125 10.4389167,22.5278542 11.17225,21.7945208 C11.9055833,21.0611875 13.0945417,21.0611875 13.827875,21.7945208" id="Fill-15"></path>
            <path d="M19.1389583,16.4834375 C19.8722917,17.2167708 19.8722917,18.4057292 19.1389583,19.1388542 C18.405625,19.8723958 17.2166667,19.8723958 16.4833333,19.1390625 C15.75,18.4057292 15.75,17.2167708 16.4833333,16.4834375 C17.2166667,15.7501042 18.405625,15.7501042 19.1389583,16.4834375" id="Fill-17"></path>
            <path d="M24.4500417,11.172375 C25.183375,11.9057083 25.183375,13.0946667 24.4500417,13.8277917 C23.7167083,14.5613333 22.52775,14.5613333 21.7944167,13.8277917 C21.0610833,13.0946667 21.0610833,11.9057083 21.7944167,11.172375 C22.52775,10.4388333 23.7167083,10.4388333 24.4500417,11.172375" id="Fill-19"></path>
            <path d="M46.4549911,6.4171123 L46.4549911,13.6029412 C46.4549911,15.5080214 47.8921569,16.9786096 49.8306595,16.9786096 C51.7158952,16.9786096 53.1429138,15.5384991 53.1724388,13.6623323 L53.1729055,13.6029412 L53.1729055,6.4171123 L55.1448307,6.4171123 L55.1448307,13.4358289 C55.1448307,16.644385 52.6715686,18.75 49.7303922,18.75 C46.8186275,18.75 44.5292525,16.6862868 44.4837561,13.5317537 L44.483066,13.4358289 L44.483066,6.4171123 L46.4549911,6.4171123 Z M88.0659537,6.25 C89.8713633,6.25 91.3543784,6.92702862 92.4516714,7.96444834 L92.5111408,8.02139037 L91.1742424,9.35828877 C90.4055258,8.52272727 89.3360071,8.02139037 88.0659537,8.02139037 C85.5926916,8.02139037 83.7544563,10.026738 83.7544563,12.5 C83.7544563,14.973262 85.5926916,16.9786096 88.0659537,16.9786096 C89.2762734,16.9786096 90.3585317,16.4663639 91.1247234,15.6612117 L91.1742424,15.6082888 L92.4777184,16.9117647 C91.3413547,18.0481283 89.7704991,18.75 88.0659537,18.75 C84.3560606,18.75 81.7491087,16.209893 81.7491087,12.5 C81.7491087,9.05748663 84.6234403,6.25 88.0659537,6.25 Z M39.4362745,11.631 C41.508467,11.631 42.9122103,13.1016043 42.9122103,15.1069519 C42.9122103,16.8935343 41.5366822,18.549114 39.4988629,18.5823778 L39.4362745,18.5828877 L32.2838681,18.5828877 L32.2838681,16.8449198 L39.2357398,16.8449198 C40.271836,16.8449198 40.9737077,16.1430481 40.9737077,15.1069519 C40.9737077,14.0878408 40.2946596,13.392086 39.2864242,13.3695482 L39.2357398,13.368984 L38.4165,13.3688333 L38.4165,11.631 L39.4362745,11.631 Z M64.469697,6.4171123 C66.5418895,6.4171123 67.9456328,7.98796791 67.9456328,9.89304813 C67.9456328,10.8957219 67.4777184,11.8315508 66.7758467,12.4665775 C67.5111408,13.1016043 68.0124777,14.0374332 68.0124777,15.1069519 C68.0124777,16.9927889 66.6697003,18.5511191 64.6001227,18.5824081 L64.5365419,18.5828877 L57.2838681,18.5828877 L57.2838333,16.8449198 L64.3694296,16.8449198 C65.4055258,16.8449198 66.1073975,16.1430481 66.1073975,15.1069519 C66.1073975,14.0878408 65.4283494,13.392086 64.4201141,13.3695482 L64.3694296,13.368984 L57.2838333,13.368984 L57.2838333,11.631016 L64.2691622,11.631016 C65.3052585,11.631016 66.0071301,10.9291444 66.0071301,9.89304813 C66.0071301,8.87393706 65.328082,8.17818222 64.3198467,8.15564447 L64.2691622,8.15508021 L57.25,8.15508021 L57.2838681,6.4171123 L64.469697,6.4171123 Z M76.8360071,11.631 C78.9081996,11.631 80.311943,13.1016043 80.311943,15.1069519 C80.311943,16.8935343 78.9364149,18.549114 76.8985955,18.5823778 L76.8360071,18.5828877 L69.6836007,18.5828877 L69.6836007,16.8449198 L76.6354724,16.8449198 C77.6715686,16.8449198 78.3734403,16.1430481 78.3734403,15.1069519 C78.3734403,14.0878408 77.6943922,13.392086 76.6861568,13.3695482 L76.6354724,13.368984 L75.9165,13.3688333 L75.9165,11.631 L76.8360071,11.631 Z M99.864082,6.4171123 L105.077986,18.5828877 L103.139483,18.5828877 L102.404189,16.8449198 L97.0831667,16.8448333 L97.5831667,15.1068333 L101.668895,15.1069519 L98.995098,8.68983957 L94.8841355,18.5828877 L92.9122103,18.5828877 L98.1261141,6.4171123 L99.864082,6.4171123 Z M108.086007,6.4171123 L116.842692,15.6751337 L116.842692,6.4171123 L118.814617,6.4171123 L118.814617,18.5828877 L117.143494,18.5828877 L108.386809,9.32486631 L108.386809,18.5828877 L106.414884,18.5828877 L106.414884,6.4171123 L108.086007,6.4171123 Z M41.8761141,6.4171123 L41.8761141,8.15508021 L35.7598039,8.15508021 C34.7237077,8.15508021 34.021836,8.85695187 34.021836,9.89304813 C34.021836,10.9121592 34.7008841,11.607914 35.7091195,11.6304518 L35.7598039,11.631016 L35.9165,11.631 L35.9165,13.3688333 L35.5592692,13.368984 C33.4870766,13.368984 32.0833333,11.8983957 32.0833333,9.89304813 C32.0833333,8.07338087 33.4588614,6.45021762 35.4966808,6.4176121 L35.5592692,6.4171123 L41.8761141,6.4171123 Z M79.2758467,6.4171123 L79.2758467,8.15508021 L73.1595365,8.15508021 C72.1234403,8.15508021 71.4215686,8.85695187 71.4215686,9.89304813 C71.4215686,10.9121592 72.1006167,11.607914 73.1088521,11.6304518 L73.1595365,11.631016 L73.4165,11.631 L73.4165,13.3688333 L72.9590018,13.368984 C70.8868093,13.368984 69.483066,11.8983957 69.483066,9.89304813 C69.483066,8.07338087 70.858594,6.45021762 72.8964134,6.4176121 L72.9590018,6.4171123 L79.2758467,6.4171123 Z" id="形状"></path>
        </g>
    </g>
</svg>